<svg xmlns="http://www.w3.org/2000/svg" viewBox="0 0 512 512" fill="none">
  <rect width="512" height="512" rx="112" fill="#0B1220"/>
  <rect x="44" y="44" width="424" height="424" rx="84" fill="#142033"/>
  <path d="M255.8 96.5c-1.2 0-2.5.2-3.6.7l-128 51.2c-4.9 2-8.2 6.7-8.2 12v85.8c0 77.3 45.7 147.3 116.2 178.2l19.3 8.5c2.9 1.2 6.2 1.2 9.1 0l19.3-8.5c70.5-30.9 116.2-100.9 116.2-178.2v-85.8c0-5.3-3.3-10-8.2-12l-128-51.2a9.6 9.6 0 0 0-3.7-.7Z" fill="#22C55E"/>
  <path d="M190.7 259.7a14 14 0 1 0-19.8 19.8l51.2 51.2a14 14 0 0 0 19.8 0l99.8-99.8a14 14 0 1 0-19.8-19.8L232 301.1l-41.3-41.4Z" fill="#0B1220"/>
</svg>
